<svg width="24" height="24" viewBox="0 0 24 24" fill="none" xmlns="http://www.w3.org/2000/svg">
  <path d="M9 2L7.17 6H2V8H2.18L4 16.5C4 17.88 5.12 19 6.5 19C7.88 19 9 17.88 9 16.5V16H15V16.5C15 17.88 16.12 19 17.5 19C18.88 19 20 17.88 20 16.5L21.82 8H22V6H16.83L15 2H9ZM9.83 4H14.17L15.33 6H8.67L9.83 4ZM4 8H20L18.5 15H5.5L4 8ZM6.5 12C5.67 12 5 12.67 5 13.5C5 14.33 5.67 15 6.5 15C7.33 15 8 14.33 8 13.5C8 12.67 7.33 12 6.5 12ZM17.5 12C16.67 12 16 12.67 16 13.5C16 14.33 16.67 15 17.5 15C18.33 15 19 14.33 19 13.5C19 12.67 18.33 12 17.5 12Z" fill="#FFFFFF"/>
</svg>

