<svg width="81" height="81" viewBox="0 0 81 81" fill="none" xmlns="http://www.w3.org/2000/svg">
  <!-- 取号图标 - 号码牌 -->
  <rect x="22" y="20" width="37" height="44" rx="4" stroke="#6e6d6b" stroke-width="2.5" stroke-linecap="round" stroke-linejoin="round"/>
  <circle cx="40.5" cy="28" r="2" fill="#6e6d6b"/>
  <path d="M32 40V50" stroke="#6e6d6b" stroke-width="3" stroke-linecap="round"/>
  <path d="M40.5 38C42.71 38 44.5 39.79 44.5 42V46C44.5 48.21 42.71 50 40.5 50C38.29 50 36.5 48.21 36.5 46V42C36.5 39.79 38.29 38 40.5 38Z" stroke="#6e6d6b" stroke-width="2.5" stroke-linecap="round" stroke-linejoin="round"/>
  <path d="M49 38C51.21 38 53 39.79 53 42V46C53 48.21 51.21 50 49 50C46.79 50 45 48.21 45 46V42C45 39.79 46.79 38 49 38Z" stroke="#6e6d6b" stroke-width="2.5" stroke-linecap="round" stroke-linejoin="round"/>
</svg>


